HIERARCHY
ROOT joint_Root
{
  OFFSET 0 0 0
  CHANNELS 6 Xposition Yposition Zposition Zrotation Xrotation Yrotation
  JOINT Hips
  {
    OFFSET 0.847027 93.984 -452.225
    CHANNELS 6 Xposition Yposition Zposition Zrotation Xrotation Yrotation
    JOINT Spine
    {
      OFFSET 15.7357 0 0
      CHANNELS 6 Xposition Yposition Zposition Zrotation Xrotation Yrotation
      JOINT Chest
      {
        OFFSET 8.98455 -0.406207 0
        CHANNELS 6 Xposition Yposition Zposition Zrotation Xrotation Yrotation
        JOINT Neck
        {
          OFFSET 16.3773 0 0
          CHANNELS 6 Xposition Yposition Zposition Zrotation Xrotation Yrotation
          JOINT Head
          {
            OFFSET 6.45672 0 0
            CHANNELS 6 Xposition Yposition Zposition Zrotation Xrotation Yrotation
            End Site
            {
              OFFSET 0 0 0
            }
          }
        }
        JOINT Shoulder_L
        {
          OFFSET 12.9942 -0.242716 4.98039
          CHANNELS 6 Xposition Yposition Zposition Zrotation Xrotation Yrotation
          JOINT UpperArm_L
          {
            OFFSET 5.34809 0 0
            CHANNELS 6 Xposition Yposition Zposition Zrotation Xrotation Yrotation
            JOINT LowerArm_L
            {
              OFFSET 24.3286 1.87007e-05 0
              CHANNELS 6 Xposition Yposition Zposition Zrotation Xrotation Yrotation
              JOINT Hand_L
              {
                OFFSET 22.2916 0 0
                CHANNELS 6 Xposition Yposition Zposition Zrotation Xrotation Yrotation
                End Site
                {
                  OFFSET 0 0 0
                }
              }
            }
          }
        }
        JOINT Shoulder_R
        {
          OFFSET 12.9945 -0.242716 -4.98039
          CHANNELS 6 Xposition Yposition Zposition Zrotation Xrotation Yrotation
          JOINT UpperArm_R
          {
            OFFSET -5.34813 0 0
            CHANNELS 6 Xposition Yposition Zposition Zrotation Xrotation Yrotation
            JOINT LowerArm_R
            {
              OFFSET -24.3289 0.000322201 0
              CHANNELS 6 Xposition Yposition Zposition Zrotation Xrotation Yrotation
              JOINT Hand_R
              {
                OFFSET -22.2915 -0.000108084 0
                CHANNELS 6 Xposition Yposition Zposition Zrotation Xrotation Yrotation
                End Site
                {
                  OFFSET 0 0 0
                }
              }
            }
          }
        }
      }
    }
    JOINT UpperLeg_L
    {
      OFFSET -2.19248 -6.46944 0
      CHANNELS 6 Xposition Yposition Zposition Zrotation Xrotation Yrotation
      JOINT LowerLeg_L
      {
        OFFSET 39.0811 0 -1.23785e-05
        CHANNELS 6 Xposition Yposition Zposition Zrotation Xrotation Yrotation
        JOINT Foot_L
        {
          OFFSET 40.9854 0 -1.26872e-05
          CHANNELS 6 Xposition Yposition Zposition Zrotation Xrotation Yrotation
          JOINT Toes_L
          {
            OFFSET 11.7543 0 0
            CHANNELS 6 Xposition Yposition Zposition Zrotation Xrotation Yrotation
            End Site
            {
              OFFSET 0 0 0
            }
          }
        }
      }
    }
    JOINT UpperLeg_R
    {
      OFFSET -2.19251 6.46944 0
      CHANNELS 6 Xposition Yposition Zposition Zrotation Xrotation Yrotation
      JOINT LowerLeg_R
      {
        OFFSET -39.0811 -0.00228153 -0.0401928
        CHANNELS 6 Xposition Yposition Zposition Zrotation Xrotation Yrotation
        JOINT Foot_R
        {
          OFFSET -40.9854 0 0
          CHANNELS 6 Xposition Yposition Zposition Zrotation Xrotation Yrotation
          JOINT Toes_R
          {
            OFFSET -11.7543 0 0
            CHANNELS 6 Xposition Yposition Zposition Zrotation Xrotation Yrotation
            End Site
            {
              OFFSET 0 0 0
            }
          }
        }
      }
    }
  }
}
MOTION
Frames:	6
Frame Time:	0.0333333
0 0 0 0 0 -0 -6.03311 88.6982 -396.288 93.5204 -0.0770735 0.796291 15.7357 5.1072e-06 -5.51765e-07 88.3952 82.7253 -87.4247 8.98455 -0.406207 -4.3199e-07 6.78205 -0.414454 1.96354 16.3773 -1.3905e-06 -6.99897e-07 1.26773 -3.81252 1.36734 6.45672 -1.25837e-06 -1.02172e-07 -6.45902 -3.34724 -1.70003 12.9942 -0.242716 4.98039 -90.5853 1.72626 -86.2659 5.34809 -7.22636e-06 -6.2814e-07 -69.2518 16.0283 7.58945 24.3286 1.87007e-05 4.90208e-06 3.07366 4.21709 -36.1377 22.2916 -9.88446e-07 4.63217e-06 12.9077 5.6002 -11.3544 12.9945 -0.242716 -4.98039 87.7425 9.57167 -91.6626 -5.34813 -1.25947e-06 -3.79883e-06 -50.4572 4.17888 -0.367309 -24.3289 0.000322201 -8.65921e-06 4.1289 5.30105 -38.0091 -22.2915 -0.000108084 -4.47941e-06 2.33908 5.53655 -8.08804 -2.19248 -6.46944 -1.22534e-07 -173.373 -14.1147 -20.3295 39.0811 -6.73843e-06 -1.23785e-05 0.501714 -0.211839 66.3501 40.9854 -6.48686e-06 -1.26872e-05 -5.4076 6.30039 -56.865 11.7543 -2.30145e-07 3.05095e-06 0.12775 -0.211517 -20.2909 -2.19251 6.46944 -1.45247e-06 174.08 23.4451 160.681 -39.0811 -0.00228153 -0.0401928 0.202726 -0.192227 43.215 -40.9854 7.72618e-06 5.99936e-06 -2.11436 -2.08088 -72.5835 -11.7543 -5.6619e-06 -5.58687e-06 0.0813962 -0.0919335 -17.4769 
0 0 0 0 0 -0 -6.3334 89.5747 -393.628 93.5046 -0.587335 0.925696 15.7357 5.1072e-06 -5.51765e-07 92.6356 83.0207 -92.217 8.98455 -0.406207 -4.3199e-07 6.17588 0.634276 0.80211 16.3773 -1.3905e-06 -6.99897e-07 1.396 -4.10211 1.18535 6.45672 -1.25837e-06 -1.02172e-07 -6.3838 -4.66868 -1.33803 12.9942 -0.242716 4.98039 -90.5401 1.48876 -85.0582 5.34809 -7.22636e-06 -6.2814e-07 -69.4081 13.9185 9.88131 24.3286 1.87007e-05 4.90207e-06 2.85746 3.95851 -35.8672 22.2916 -9.88446e-07 4.63217e-06 13.0588 5.59663 -11.1429 12.9945 -0.242716 -4.98039 87.9377 9.04162 -92.0945 -5.34813 -1.25947e-06 -3.79883e-06 -50.2457 4.53922 -2.55242 -24.3289 0.000322201 -8.65921e-06 4.20286 5.18374 -39.1319 -22.2915 -0.000108084 -4.47941e-06 2.51466 5.53436 -7.98824 -2.19248 -6.46944 -1.22534e-07 -174.578 -15.7777 -21.9437 39.0811 -6.73843e-06 -1.23785e-05 0.38804 -0.216289 60.0628 40.9854 -6.48686e-06 -1.26872e-05 -5.80892 6.50913 -57.3465 11.7543 -2.30145e-07 3.05095e-06 0.126807 -0.209837 -20.2618 -2.19251 6.46944 -1.45247e-06 173.313 24.1406 165.036 -39.0811 -0.00228153 -0.0401928 0.167789 -0.178163 39.1551 -40.9854 7.72618e-06 5.99936e-06 -2.29126 -0.827165 -72.4397 -11.7543 -5.6619e-06 -5.58687e-06 0.0867743 -0.0981316 -17.5372 
0 0 0 0 0 -0 -6.58815 90.1432 -391.129 93.2922 -1.43054 0.637418 15.7357 5.1072e-06 -5.51765e-07 98.0869 83.3073 -98.1791 8.98455 -0.406207 -4.3199e-07 5.49004 1.88045 -0.274313 16.3773 -1.3905e-06 -6.99897e-07 1.43699 -4.19255 1.18494 6.45672 -1.25837e-06 -1.02172e-07 -6.28855 -5.98485 -0.819802 12.9942 -0.242716 4.98039 -90.504 1.29685 -83.7629 5.34809 -7.22636e-06 -6.2814e-07 -68.8842 11.9963 11.6905 24.3286 1.87007e-05 4.90208e-06 2.86964 3.98922 -35.7737 22.2916 -9.88446e-07 4.63217e-06 13.336 5.59542 -11.0721 12.9945 -0.242716 -4.98039 88.1377 8.54323 -92.6548 -5.34813 -1.25947e-06 -3.79883e-06 -49.7362 4.91491 -4.56002 -24.3289 0.000322201 -8.65921e-06 4.10994 4.9216 -39.9534 -22.2915 -0.000108084 -4.47941e-06 2.89231 5.53283 -7.92234 -2.19248 -6.46944 -1.22533e-07 -175.724 -17.3898 -23.6539 39.0811 -6.73843e-06 -1.23785e-05 0.276465 -0.204108 52.6647 40.9854 -6.48686e-06 -1.26872e-05 -6.20414 6.46897 -57.8912 11.7543 -2.30145e-07 3.05095e-06 0.130493 -0.216413 -20.3751 -2.19251 6.46944 -1.45247e-06 173.027 23.5384 168.385 -39.0811 -0.00228153 -0.0401928 0.113943 -0.126478 35.6631 -40.9854 7.72618e-06 5.99936e-06 -2.80403 -0.531373 -72.4224 -11.7543 -5.6619e-06 -5.58687e-06 0.0939462 -0.106383 -17.6177 
0 0 0 0 0 -0 -6.78212 90.3718 -388.673 93.0098 -2.25468 0.0864194 15.7357 5.1072e-06 -5.51765e-07 102.878 83.5388 -103.44 8.98455 -0.406207 -4.3199e-07 4.85071 2.88883 -1.2451 16.3773 -1.3905e-06 -6.99897e-07 1.37272 -4.18164 1.12783 6.45672 -1.25837e-06 -1.02172e-07 -6.28098 -6.93259 -0.0731447 12.9942 -0.242716 4.98039 -90.4933 1.18559 -82.4051 5.34809 -7.22636e-06 -6.2814e-07 -67.9674 9.99756 13.2459 24.3286 1.87007e-05 4.90208e-06 2.70152 3.75468 -35.7746 22.2916 -9.88446e-07 4.63217e-06 13.7712 5.59382 -10.9806 12.9945 -0.242716 -4.98039 88.3482 7.99099 -93.2808 -5.34813 -1.25947e-06 -3.79883e-06 -48.9659 5.35702 -6.67177 -24.3289 0.000322201 -8.65921e-06 3.84843 4.53387 -40.4047 -22.2915 -0.000108084 -4.47941e-06 3.13915 5.53176 -7.87349 -2.19248 -6.46944 -1.22533e-07 -176.844 -18.1012 -25.3505 39.0811 -6.73843e-06 -1.23785e-05 0.174059 -0.171197 44.4143 40.9854 -6.48686e-06 -1.26872e-05 -6.29457 6.20064 -58.1296 11.7543 -2.30145e-07 3.05095e-06 0.135485 -0.225378 -20.5293 -2.19251 6.46944 -1.45247e-06 172.99 22.2533 170.853 -39.0811 -0.00228153 -0.0401928 0.0559362 -0.0488318 33.1462 -40.9854 7.72618e-06 5.99936e-06 -3.56192 -0.953362 -72.852 -11.7543 -5.6619e-06 -5.58687e-06 0.107423 -0.121964 -17.769 
0 0 0 0 0 -0 -6.85849 90.2694 -386.16 92.5673 -2.90332 -0.466515 15.7357 5.1072e-06 -5.51765e-07 106.5 83.6568 -107.446 8.98455 -0.406207 -4.3199e-07 4.43583 3.62462 -2.0308 16.3773 -1.3905e-06 -6.99897e-07 1.09789 -4.09922 1.10066 6.45672 -1.25837e-06 -1.02172e-07 -6.21216 -7.58556 0.680691 12.9942 -0.242716 4.98039 -90.4482 1.01704 -81.2173 5.34809 -7.22636e-06 -6.2814e-07 -67.0141 7.76498 14.6095 24.3286 1.87007e-05 4.90207e-06 2.77368 3.83105 -35.9454 22.2916 -9.88446e-07 4.63217e-06 14.0709 5.58845 -10.6753 12.9945 -0.242716 -4.98039 88.538 7.43377 -93.8409 -5.34813 -1.25947e-06 -3.79883e-06 -48.0272 5.65896 -8.74372 -24.3289 0.000322201 -8.65921e-06 4.01005 4.65247 -40.8436 -22.2915 -0.000108084 -4.47941e-06 3.09625 5.52987 -7.78948 -2.19248 -6.46944 -1.22533e-07 -177.583 -17.6895 -26.8554 39.0811 -6.73843e-06 -1.23785e-05 0.0954031 -0.124956 36.0603 40.9854 -6.48686e-06 -1.26872e-05 -6.00119 5.6117 -58.0168 11.7543 -2.30145e-07 3.05095e-06 0.151387 -0.254322 -21.0254 -2.19251 6.46944 -1.45247e-06 172.981 21.3035 172.886 -39.0811 -0.00228153 -0.0401928 0.0247601 0.00139235 31.6463 -40.9854 7.72618e-06 5.99936e-06 -4.33618 -1.06181 -73.7896 -11.7543 -5.6619e-06 -5.58687e-06 0.0925435 -0.104766 -17.602 
0 0 0 0 0 -0 -6.79158 89.8583 -383.485 91.9255 -3.70691 -0.885808 15.7357 5.1072e-06 -5.51765e-07 110.203 83.6218 -111.416 8.98455 -0.406207 -4.3199e-07 4.26403 4.43549 -2.58904 16.3773 -1.3905e-06 -6.99897e-07 0.91371 -4.03111 1.13012 6.45672 -1.25837e-06 -1.02172e-07 -6.37879 -8.0749 1.32748 12.9942 -0.242716 4.98039 -90.4114 0.89792 -80.385 5.34809 -7.22636e-06 -6.2814e-07 -66.1477 5.71052 15.856 24.3286 1.87007e-05 4.90207e-06 2.87185 3.9605 -35.9902 22.2916 -9.88446e-07 4.63217e-06 14.6066 5.58329 -10.3914 12.9945 -0.242716 -4.98039 88.6573 7.04774 -94.1856 -5.34813 -1.25947e-06 -3.79883e-06 -46.7824 5.82057 -10.4783 -24.3289 0.000322201 -8.65921e-06 4.23184 4.80167 -41.4852 -22.2915 -0.000108084 -4.47941e-06 3.22624 5.52023 -7.37223 -2.19248 -6.46944 -1.22533e-07 -177.661 -16.7521 -28.0037 39.0811 -6.73843e-06 -1.23785e-05 0.0456437 -0.0794963 28.1275 40.9854 -6.48686e-06 -1.26872e-05 -5.77715 5.00029 -57.3868 11.7543 -2.30145e-07 3.05095e-06 0.147645 -0.247451 -20.9079 -2.19251 6.46944 -1.45247e-06 172.834 20.7023 174.799 -39.0811 -0.00228153 -0.0401928 -0.0174273 0.0741757 31.0013 -40.9854 7.72618e-06 5.99936e-06 -5.15366 -0.616718 -75.1846 -11.7543 -5.6619e-06 -5.58687e-06 0.104666 -0.118758 -17.738 
